<svg display="none" xmlns="http://www.w3.org/2000/svg">
  <symbol id="arrow_prev" width="18" height="30" viewBox="0 0 18 30" fill="none">
    <path d="M16 2L3 15L16 28" stroke="#1E0606" stroke-width="4"/>
  </symbol>
  <symbol id="arrow_next" width="18" height="30" viewBox="0 0 18 30" fill="none">
    <path d="M2 2L15 15L2 28" stroke="#1E0606" stroke-width="4"/>
  </symbol>
  <symbol id="logo" width="102" height="52" viewBox="0 0 102 52" fill="none">
    <path fill-rule="evenodd" clip-rule="evenodd" d="M0.997559 0H19.1259C32.1442 0 41.4377 12.3713 41.4377 24.0356V27.7332C41.4377 39.3974 32.1442 51.7689 19.1259 51.7689H0.997559V0ZM38.6487 24.0356C38.6487 13.5132 30.2391 2.77333 19.1259 2.77333H3.78653V48.9956H19.1259C30.2391 48.9956 38.6487 38.2557 38.6487 27.7333V24.0356Z" fill="#1E0606"/>
    <path d="M47.4805 0H50.2694V49.2267H65.144V52H47.4805V0Z" fill="#1E0606"/>
    <path d="M68.8626 0V51.7689H71.6516V27.3833L72.3362 26.7025L97.1676 51.7689H101.083L74.3083 24.7414L99.1893 0H95.2451L71.6516 23.4612V0H68.8626Z" fill="#1E0606"/>
  </symbol>
  <symbol id="star" width="14" height="13" viewBox="0 0 14 13" fill="none">
    <path d="M5.60845 0.927052C5.9078 0.0057416 7.21121 0.00574088 7.51056 0.927052L8.58013 4.21885H12.0413C13.0101 4.21885 13.4128 5.45846 12.6291 6.02786L9.82895 8.06231L10.8985 11.3541C11.1979 12.2754 10.1434 13.0415 9.35968 12.4721L6.55951 10.4377L3.75934 12.4721C2.97563 13.0415 1.92115 12.2754 2.2205 11.3541L3.29007 8.06231L0.4899 6.02787C-0.293814 5.45846 0.108961 4.21885 1.07768 4.21885H4.53888L5.60845 0.927052Z" fill="white"/>
  </symbol>
  <symbol id="facebook" width="30" height="30" viewBox="0 0 30 30" fill="none">
    <path fill-rule="evenodd" clip-rule="evenodd" d="M0 15C0 6.71573 6.71573 0 15 0C23.2843 0 30 6.71573 30 15C30 23.2843 23.2843 30 15 30C6.71573 30 0 23.2843 0 15Z" fill="#666666"/>
    <path fill-rule="evenodd" clip-rule="evenodd" d="M18.5527 10.3672H16.2967C16.0307 10.3672 15.7337 10.7172 15.7337 11.1852V12.8142H18.5527V15.1352H15.7337V22.1052H13.0707V15.1352H10.6577V12.8142H13.0707V11.4472C13.0707 9.48823 14.4317 7.89423 16.2967 7.89423H18.5527V10.3672Z" fill="white"/>
  </symbol>
  <symbol id="twitter" width="30" height="30" viewBox="0 0 30 30" fill="none">
    <path fill-rule="evenodd" clip-rule="evenodd" d="M0 15C0 6.71573 6.71573 0 15 0C23.2843 0 30 6.71573 30 15C30 23.2843 23.2843 30 15 30C6.71573 30 0 23.2843 0 15Z" fill="#666666"/>
    <path fill-rule="evenodd" clip-rule="evenodd" d="M21.1006 12.2891C21.1056 12.4161 21.1096 12.5431 21.1096 12.6721C21.1096 16.5761 18.1366 21.0781 12.7026 21.0781C11.0346 21.0781 9.48058 20.5881 8.17358 19.7501C8.40658 19.7771 8.64158 19.7911 8.87958 19.7911C10.2636 19.7911 11.5376 19.3181 12.5486 18.5251C11.2556 18.5021 10.1656 17.6481 9.78758 16.4751C9.96858 16.5101 10.1546 16.5271 10.3446 16.5271C10.6136 16.5271 10.8746 16.4921 11.1226 16.4241C9.77158 16.1521 8.75158 14.9591 8.75158 13.5271V13.4901C9.15058 13.7111 9.60758 13.8441 10.0916 13.8591C9.29858 13.3301 8.77758 12.4261 8.77758 11.4001C8.77758 10.8591 8.92258 10.3521 9.17658 9.91612C10.6326 11.7031 12.8106 12.8791 15.2656 13.0021C15.2156 12.7851 15.1906 12.5601 15.1906 12.3281C15.1906 10.6971 16.5126 9.37512 18.1446 9.37512C18.9936 9.37512 19.7616 9.73212 20.2996 10.3071C20.9736 10.1761 21.6056 9.93012 22.1766 9.59012C21.9556 10.2811 21.4886 10.8591 20.8766 11.2251C21.4746 11.1541 22.0446 10.9961 22.5756 10.7601C22.1776 11.3521 21.6776 11.8731 21.1006 12.2891Z" fill="white"/>
  </symbol>
  <symbol id="pinterest" width="30" height="30" viewBox="0 0 30 30" fill="none">
    <path fill-rule="evenodd" clip-rule="evenodd" d="M0 15C0 6.71573 6.71573 0 15 0C23.2843 0 30 6.71573 30 15C30 23.2843 23.2843 30 15 30C6.71573 30 0 23.2843 0 15Z" fill="#666666"/>
    <path fill-rule="evenodd" clip-rule="evenodd" d="M21.1006 12.2891C21.1056 12.4161 21.1096 12.5431 21.1096 12.6721C21.1096 16.5761 18.1366 21.0781 12.7026 21.0781C11.0346 21.0781 9.48058 20.5881 8.17358 19.7501C8.40658 19.7771 8.64158 19.7911 8.87958 19.7911C10.2636 19.7911 11.5376 19.3181 12.5486 18.5251C11.2556 18.5021 10.1656 17.6481 9.78758 16.4751C9.96858 16.5101 10.1546 16.5271 10.3446 16.5271C10.6136 16.5271 10.8746 16.4921 11.1226 16.4241C9.77158 16.1521 8.75158 14.9591 8.75158 13.5271V13.4901C9.15058 13.7111 9.60758 13.8441 10.0916 13.8591C9.29858 13.3301 8.77758 12.4261 8.77758 11.4001C8.77758 10.8591 8.92258 10.3521 9.17658 9.91612C10.6326 11.7031 12.8106 12.8791 15.2656 13.0021C15.2156 12.7851 15.1906 12.5601 15.1906 12.3281C15.1906 10.6971 16.5126 9.37512 18.1446 9.37512C18.9936 9.37512 19.7616 9.73212 20.2996 10.3071C20.9736 10.1761 21.6056 9.93012 22.1766 9.59012C21.9556 10.2811 21.4886 10.8591 20.8766 11.2251C21.4746 11.1541 22.0446 10.9961 22.5756 10.7601C22.1776 11.3521 21.6776 11.8731 21.1006 12.2891Z" fill="white"/>
  </symbol>
  <symbol id="instagram" width="30" height="30" viewBox="0 0 30 30" fill="none">
    <path fill-rule="evenodd" clip-rule="evenodd" d="M0 15C0 6.71573 6.71573 0 15 0C23.2843 0 30 6.71573 30 15C30 23.2843 23.2843 30 15 30C6.71573 30 0 23.2843 0 15Z" fill="#666666"/>
    <path fill-rule="evenodd" clip-rule="evenodd" d="M15 7C12.8273 7 12.5549 7.0092 11.7016 7.04813C10.8501 7.08697 10.2686 7.22223 9.7597 7.42C9.23363 7.62443 8.7875 7.89797 8.3427 8.3427C7.89797 8.7875 7.62443 9.23363 7.42 9.7597C7.22223 10.2686 7.08697 10.8501 7.04813 11.7016C7.0092 12.5549 7 12.8273 7 15C7 17.1727 7.0092 17.4451 7.04813 18.2984C7.08697 19.1499 7.22223 19.7314 7.42 20.2403C7.62443 20.7664 7.89797 21.2125 8.3427 21.6573C8.7875 22.102 9.23363 22.3756 9.7597 22.58C10.2686 22.7778 10.8501 22.913 11.7016 22.9519C12.5549 22.9908 12.8273 23 15 23C17.1727 23 17.4451 22.9908 18.2984 22.9519C19.1499 22.913 19.7314 22.7778 20.2403 22.58C20.7664 22.3756 21.2125 22.102 21.6573 21.6573C22.102 21.2125 22.3756 20.7664 22.58 20.2403C22.7778 19.7314 22.913 19.1499 22.9519 18.2984C22.9908 17.4451 23 17.1727 23 15C23 12.8273 22.9908 12.5549 22.9519 11.7016C22.913 10.8501 22.7778 10.2686 22.58 9.7597C22.3756 9.23363 22.102 8.7875 21.6573 8.3427C21.2125 7.89797 20.7664 7.62443 20.2403 7.42C19.7314 7.22223 19.1499 7.08697 18.2984 7.04813C17.4451 7.0092 17.1727 7 15 7ZM15 8.44143C17.1361 8.44143 17.3891 8.4496 18.2327 8.4881C19.0127 8.52367 19.4363 8.65397 19.7182 8.76353C20.0916 8.90867 20.3581 9.08203 20.638 9.362C20.918 9.6419 21.0913 9.9084 21.2365 10.2818C21.346 10.5637 21.4763 10.9873 21.5119 11.7673C21.5504 12.6109 21.5586 12.8639 21.5586 15C21.5586 17.1361 21.5504 17.3891 21.5119 18.2327C21.4763 19.0127 21.346 19.4363 21.2365 19.7182C21.0913 20.0916 20.918 20.3581 20.638 20.638C20.3581 20.918 20.0916 21.0913 19.7182 21.2365C19.4363 21.346 19.0127 21.4763 18.2327 21.5119C17.3892 21.5504 17.1363 21.5586 15 21.5586C12.8637 21.5586 12.6108 21.5504 11.7673 21.5119C10.9873 21.4763 10.5637 21.346 10.2818 21.2365C9.9084 21.0913 9.64193 20.918 9.36197 20.638C9.08207 20.3581 8.90867 20.0916 8.76353 19.7182C8.65397 19.4363 8.52367 19.0127 8.4881 18.2327C8.4496 17.3891 8.44143 17.1361 8.44143 15C8.44143 12.8639 8.4496 12.6109 8.4881 11.7673C8.52367 10.9873 8.65397 10.5637 8.76353 10.2818C8.90867 9.9084 9.08203 9.6419 9.36197 9.362C9.64193 9.08203 9.9084 8.90867 10.2818 8.76353C10.5637 8.65397 10.9873 8.52367 11.7673 8.4881C12.6109 8.4496 12.8639 8.44143 15 8.44143ZM10.8919 15C10.8919 12.7311 12.7311 10.8919 15 10.8919C17.2689 10.8919 19.1081 12.7311 19.1081 15C19.1081 17.2689 17.2689 19.1081 15 19.1081C12.7311 19.1081 10.8919 17.2689 10.8919 15ZM15 17.6667C13.5272 17.6667 12.3333 16.4728 12.3333 15C12.3333 13.5272 13.5272 12.3333 15 12.3333C16.4728 12.3333 17.6667 13.5272 17.6667 15C17.6667 16.4728 16.4728 17.6667 15 17.6667ZM19.2704 11.6896C19.8006 11.6896 20.2304 11.2598 20.2304 10.7296C20.2304 10.1994 19.8006 9.76957 19.2704 9.76957C18.7402 9.76957 18.3104 10.1994 18.3104 10.7296C18.3104 11.2598 18.7402 11.6896 19.2704 11.6896Z" fill="white"/>
  </symbol>
</svg>